G04 #@! TF.GenerationSoftware,KiCad,Pcbnew,7.0.5*
G04 #@! TF.CreationDate,2023-09-10T12:32:57+02:00*
G04 #@! TF.ProjectId,NullModemAdapter,4e756c6c-4d6f-4646-956d-416461707465,rev?*
G04 #@! TF.SameCoordinates,Original*
G04 #@! TF.FileFunction,Legend,Top*
G04 #@! TF.FilePolarity,Positive*
%FSLAX46Y46*%
G04 Gerber Fmt 4.6, Leading zero omitted, Abs format (unit mm)*
G04 Created by KiCad (PCBNEW 7.0.5) date 2023-09-10 12:32:57*
%MOMM*%
%LPD*%
G01*
G04 APERTURE LIST*
%ADD10C,0.500000*%
%ADD11C,1.600000*%
%ADD12R,1.600000X1.600000*%
%ADD13C,4.000000*%
%ADD14C,1.800000*%
%ADD15R,1.800000X1.800000*%
%ADD16O,1.600000X1.600000*%
%ADD17C,3.200000*%
G04 APERTURE END LIST*
D10*
X74000000Y-90000000D02*
X74000000Y-80000000D01*
X72000000Y-88000000D02*
X74000000Y-90000000D01*
X74000000Y-90000000D02*
X76000000Y-88000000D01*
X100000000Y-80000000D02*
X98000000Y-82000000D01*
X102000000Y-82000000D02*
X100000000Y-80000000D01*
X100000000Y-90000000D02*
X100000000Y-80000000D01*
X92521142Y-79042481D02*
X92664000Y-79185338D01*
X92664000Y-79185338D02*
X92806857Y-79613910D01*
X92806857Y-79613910D02*
X92806857Y-79899624D01*
X92806857Y-79899624D02*
X92664000Y-80328195D01*
X92664000Y-80328195D02*
X92378285Y-80613910D01*
X92378285Y-80613910D02*
X92092571Y-80756767D01*
X92092571Y-80756767D02*
X91521142Y-80899624D01*
X91521142Y-80899624D02*
X91092571Y-80899624D01*
X91092571Y-80899624D02*
X90521142Y-80756767D01*
X90521142Y-80756767D02*
X90235428Y-80613910D01*
X90235428Y-80613910D02*
X89949714Y-80328195D01*
X89949714Y-80328195D02*
X89806857Y-79899624D01*
X89806857Y-79899624D02*
X89806857Y-79613910D01*
X89806857Y-79613910D02*
X89949714Y-79185338D01*
X89949714Y-79185338D02*
X90092571Y-79042481D01*
X89806857Y-78185338D02*
X89806857Y-76471053D01*
X92806857Y-77328195D02*
X89806857Y-77328195D01*
X92664000Y-75613910D02*
X92806857Y-75185339D01*
X92806857Y-75185339D02*
X92806857Y-74471053D01*
X92806857Y-74471053D02*
X92664000Y-74185339D01*
X92664000Y-74185339D02*
X92521142Y-74042481D01*
X92521142Y-74042481D02*
X92235428Y-73899624D01*
X92235428Y-73899624D02*
X91949714Y-73899624D01*
X91949714Y-73899624D02*
X91664000Y-74042481D01*
X91664000Y-74042481D02*
X91521142Y-74185339D01*
X91521142Y-74185339D02*
X91378285Y-74471053D01*
X91378285Y-74471053D02*
X91235428Y-75042481D01*
X91235428Y-75042481D02*
X91092571Y-75328196D01*
X91092571Y-75328196D02*
X90949714Y-75471053D01*
X90949714Y-75471053D02*
X90664000Y-75613910D01*
X90664000Y-75613910D02*
X90378285Y-75613910D01*
X90378285Y-75613910D02*
X90092571Y-75471053D01*
X90092571Y-75471053D02*
X89949714Y-75328196D01*
X89949714Y-75328196D02*
X89806857Y-75042481D01*
X89806857Y-75042481D02*
X89806857Y-74328196D01*
X89806857Y-74328196D02*
X89949714Y-73899624D01*
X85600000Y-99000000D02*
X85600000Y-71000000D01*
X83421142Y-94842481D02*
X83564000Y-94985338D01*
X83564000Y-94985338D02*
X83706857Y-95413910D01*
X83706857Y-95413910D02*
X83706857Y-95699624D01*
X83706857Y-95699624D02*
X83564000Y-96128195D01*
X83564000Y-96128195D02*
X83278285Y-96413910D01*
X83278285Y-96413910D02*
X82992571Y-96556767D01*
X82992571Y-96556767D02*
X82421142Y-96699624D01*
X82421142Y-96699624D02*
X81992571Y-96699624D01*
X81992571Y-96699624D02*
X81421142Y-96556767D01*
X81421142Y-96556767D02*
X81135428Y-96413910D01*
X81135428Y-96413910D02*
X80849714Y-96128195D01*
X80849714Y-96128195D02*
X80706857Y-95699624D01*
X80706857Y-95699624D02*
X80706857Y-95413910D01*
X80706857Y-95413910D02*
X80849714Y-94985338D01*
X80849714Y-94985338D02*
X80992571Y-94842481D01*
X80706857Y-93985338D02*
X80706857Y-92271053D01*
X83706857Y-93128195D02*
X80706857Y-93128195D01*
X83564000Y-91413910D02*
X83706857Y-90985339D01*
X83706857Y-90985339D02*
X83706857Y-90271053D01*
X83706857Y-90271053D02*
X83564000Y-89985339D01*
X83564000Y-89985339D02*
X83421142Y-89842481D01*
X83421142Y-89842481D02*
X83135428Y-89699624D01*
X83135428Y-89699624D02*
X82849714Y-89699624D01*
X82849714Y-89699624D02*
X82564000Y-89842481D01*
X82564000Y-89842481D02*
X82421142Y-89985339D01*
X82421142Y-89985339D02*
X82278285Y-90271053D01*
X82278285Y-90271053D02*
X82135428Y-90842481D01*
X82135428Y-90842481D02*
X81992571Y-91128196D01*
X81992571Y-91128196D02*
X81849714Y-91271053D01*
X81849714Y-91271053D02*
X81564000Y-91413910D01*
X81564000Y-91413910D02*
X81278285Y-91413910D01*
X81278285Y-91413910D02*
X80992571Y-91271053D01*
X80992571Y-91271053D02*
X80849714Y-91128196D01*
X80849714Y-91128196D02*
X80706857Y-90842481D01*
X80706857Y-90842481D02*
X80706857Y-90128196D01*
X80706857Y-90128196D02*
X80849714Y-89699624D01*
X92706857Y-94942481D02*
X91278285Y-95942481D01*
X92706857Y-96656767D02*
X89706857Y-96656767D01*
X89706857Y-96656767D02*
X89706857Y-95513910D01*
X89706857Y-95513910D02*
X89849714Y-95228195D01*
X89849714Y-95228195D02*
X89992571Y-95085338D01*
X89992571Y-95085338D02*
X90278285Y-94942481D01*
X90278285Y-94942481D02*
X90706857Y-94942481D01*
X90706857Y-94942481D02*
X90992571Y-95085338D01*
X90992571Y-95085338D02*
X91135428Y-95228195D01*
X91135428Y-95228195D02*
X91278285Y-95513910D01*
X91278285Y-95513910D02*
X91278285Y-96656767D01*
X89706857Y-94085338D02*
X89706857Y-92371053D01*
X92706857Y-93228195D02*
X89706857Y-93228195D01*
X92564000Y-91513910D02*
X92706857Y-91085339D01*
X92706857Y-91085339D02*
X92706857Y-90371053D01*
X92706857Y-90371053D02*
X92564000Y-90085339D01*
X92564000Y-90085339D02*
X92421142Y-89942481D01*
X92421142Y-89942481D02*
X92135428Y-89799624D01*
X92135428Y-89799624D02*
X91849714Y-89799624D01*
X91849714Y-89799624D02*
X91564000Y-89942481D01*
X91564000Y-89942481D02*
X91421142Y-90085339D01*
X91421142Y-90085339D02*
X91278285Y-90371053D01*
X91278285Y-90371053D02*
X91135428Y-90942481D01*
X91135428Y-90942481D02*
X90992571Y-91228196D01*
X90992571Y-91228196D02*
X90849714Y-91371053D01*
X90849714Y-91371053D02*
X90564000Y-91513910D01*
X90564000Y-91513910D02*
X90278285Y-91513910D01*
X90278285Y-91513910D02*
X89992571Y-91371053D01*
X89992571Y-91371053D02*
X89849714Y-91228196D01*
X89849714Y-91228196D02*
X89706857Y-90942481D01*
X89706857Y-90942481D02*
X89706857Y-90228196D01*
X89706857Y-90228196D02*
X89849714Y-89799624D01*
X83706857Y-79442481D02*
X82278285Y-80442481D01*
X83706857Y-81156767D02*
X80706857Y-81156767D01*
X80706857Y-81156767D02*
X80706857Y-80013910D01*
X80706857Y-80013910D02*
X80849714Y-79728195D01*
X80849714Y-79728195D02*
X80992571Y-79585338D01*
X80992571Y-79585338D02*
X81278285Y-79442481D01*
X81278285Y-79442481D02*
X81706857Y-79442481D01*
X81706857Y-79442481D02*
X81992571Y-79585338D01*
X81992571Y-79585338D02*
X82135428Y-79728195D01*
X82135428Y-79728195D02*
X82278285Y-80013910D01*
X82278285Y-80013910D02*
X82278285Y-81156767D01*
X80706857Y-78585338D02*
X80706857Y-76871053D01*
X83706857Y-77728195D02*
X80706857Y-77728195D01*
X83564000Y-76013910D02*
X83706857Y-75585339D01*
X83706857Y-75585339D02*
X83706857Y-74871053D01*
X83706857Y-74871053D02*
X83564000Y-74585339D01*
X83564000Y-74585339D02*
X83421142Y-74442481D01*
X83421142Y-74442481D02*
X83135428Y-74299624D01*
X83135428Y-74299624D02*
X82849714Y-74299624D01*
X82849714Y-74299624D02*
X82564000Y-74442481D01*
X82564000Y-74442481D02*
X82421142Y-74585339D01*
X82421142Y-74585339D02*
X82278285Y-74871053D01*
X82278285Y-74871053D02*
X82135428Y-75442481D01*
X82135428Y-75442481D02*
X81992571Y-75728196D01*
X81992571Y-75728196D02*
X81849714Y-75871053D01*
X81849714Y-75871053D02*
X81564000Y-76013910D01*
X81564000Y-76013910D02*
X81278285Y-76013910D01*
X81278285Y-76013910D02*
X80992571Y-75871053D01*
X80992571Y-75871053D02*
X80849714Y-75728196D01*
X80849714Y-75728196D02*
X80706857Y-75442481D01*
X80706857Y-75442481D02*
X80706857Y-74728196D01*
X80706857Y-74728196D02*
X80849714Y-74299624D01*
X88400000Y-99000000D02*
X88400000Y-71000000D01*
%LPC*%
D11*
X82855000Y-102840000D03*
X85625000Y-102840000D03*
X88395000Y-102840000D03*
X91165000Y-102840000D03*
X81470000Y-100000000D03*
X84240000Y-100000000D03*
X87010000Y-100000000D03*
X89780000Y-100000000D03*
D12*
X92550000Y-100000000D03*
D13*
X99510000Y-101420000D03*
X74510000Y-101420000D03*
X99535000Y-68570000D03*
X74535000Y-68570000D03*
D12*
X81495000Y-69990000D03*
D11*
X84265000Y-69990000D03*
X87035000Y-69990000D03*
X89805000Y-69990000D03*
X92575000Y-69990000D03*
X82880000Y-67150000D03*
X85650000Y-67150000D03*
X88420000Y-67150000D03*
X91190000Y-67150000D03*
D14*
X82500000Y-85500000D03*
D15*
X79960000Y-85500000D03*
D14*
X91460000Y-85500000D03*
D15*
X94000000Y-85500000D03*
D11*
X107000000Y-75500000D03*
D16*
X107000000Y-85660000D03*
D11*
X68000000Y-95660000D03*
D16*
X68000000Y-85500000D03*
D17*
X65000000Y-65000000D03*
X109000000Y-65000000D03*
X109000000Y-105000000D03*
X65000000Y-105000000D03*
%LPD*%
M02*
