%TF.GenerationSoftware,KiCad,Pcbnew,7.0.5*%
%TF.CreationDate,2024-08-02T13:19:41+02:00*%
%TF.ProjectId,NullModemAdapter,4e756c6c-4d6f-4646-956d-416461707465,rev?*%
%TF.SameCoordinates,Original*%
%TF.FileFunction,Drillmap*%
%TF.FilePolarity,Positive*%
%FSLAX45Y45*%
G04 Gerber Fmt 4.5, Leading zero omitted, Abs format (unit mm)*
G04 Created by KiCad (PCBNEW 7.0.5) date 2024-08-02 13:19:41*
%MOMM*%
%LPD*%
G01*
G04 APERTURE LIST*
%ADD10C,0.100000*%
%ADD11C,0.200000*%
%ADD12C,0.320000*%
G04 APERTURE END LIST*
D10*
X6000000Y-6000000D02*
X11400000Y-6000000D01*
X11400000Y-11000000D01*
X6000000Y-11000000D01*
X6000000Y-6000000D01*
D11*
D12*
X6340000Y-6340000D02*
X6660000Y-6660000D01*
X6660000Y-6340000D02*
X6340000Y-6660000D01*
X6340000Y-10340000D02*
X6660000Y-10660000D01*
X6660000Y-10340000D02*
X6340000Y-10660000D01*
X10740000Y-6340000D02*
X11060000Y-6660000D01*
X11060000Y-6340000D02*
X10740000Y-6660000D01*
X10740000Y-10340000D02*
X11060000Y-10660000D01*
X11060000Y-10340000D02*
X10740000Y-10660000D01*
D11*
X6255777Y-11316484D02*
X6255777Y-11116484D01*
X6255777Y-11116484D02*
X6303396Y-11116484D01*
X6303396Y-11116484D02*
X6331967Y-11126008D01*
X6331967Y-11126008D02*
X6351015Y-11145055D01*
X6351015Y-11145055D02*
X6360539Y-11164103D01*
X6360539Y-11164103D02*
X6370062Y-11202198D01*
X6370062Y-11202198D02*
X6370062Y-11230769D01*
X6370062Y-11230769D02*
X6360539Y-11268865D01*
X6360539Y-11268865D02*
X6351015Y-11287912D01*
X6351015Y-11287912D02*
X6331967Y-11306960D01*
X6331967Y-11306960D02*
X6303396Y-11316484D01*
X6303396Y-11316484D02*
X6255777Y-11316484D01*
X6455777Y-11316484D02*
X6455777Y-11183150D01*
X6455777Y-11221246D02*
X6465301Y-11202198D01*
X6465301Y-11202198D02*
X6474824Y-11192674D01*
X6474824Y-11192674D02*
X6493872Y-11183150D01*
X6493872Y-11183150D02*
X6512920Y-11183150D01*
X6579586Y-11316484D02*
X6579586Y-11183150D01*
X6579586Y-11116484D02*
X6570062Y-11126008D01*
X6570062Y-11126008D02*
X6579586Y-11135531D01*
X6579586Y-11135531D02*
X6589110Y-11126008D01*
X6589110Y-11126008D02*
X6579586Y-11116484D01*
X6579586Y-11116484D02*
X6579586Y-11135531D01*
X6703396Y-11316484D02*
X6684348Y-11306960D01*
X6684348Y-11306960D02*
X6674824Y-11287912D01*
X6674824Y-11287912D02*
X6674824Y-11116484D01*
X6808158Y-11316484D02*
X6789110Y-11306960D01*
X6789110Y-11306960D02*
X6779586Y-11287912D01*
X6779586Y-11287912D02*
X6779586Y-11116484D01*
X7036729Y-11316484D02*
X7036729Y-11116484D01*
X7036729Y-11116484D02*
X7103396Y-11259341D01*
X7103396Y-11259341D02*
X7170062Y-11116484D01*
X7170062Y-11116484D02*
X7170062Y-11316484D01*
X7351015Y-11316484D02*
X7351015Y-11211722D01*
X7351015Y-11211722D02*
X7341491Y-11192674D01*
X7341491Y-11192674D02*
X7322443Y-11183150D01*
X7322443Y-11183150D02*
X7284348Y-11183150D01*
X7284348Y-11183150D02*
X7265301Y-11192674D01*
X7351015Y-11306960D02*
X7331967Y-11316484D01*
X7331967Y-11316484D02*
X7284348Y-11316484D01*
X7284348Y-11316484D02*
X7265301Y-11306960D01*
X7265301Y-11306960D02*
X7255777Y-11287912D01*
X7255777Y-11287912D02*
X7255777Y-11268865D01*
X7255777Y-11268865D02*
X7265301Y-11249817D01*
X7265301Y-11249817D02*
X7284348Y-11240293D01*
X7284348Y-11240293D02*
X7331967Y-11240293D01*
X7331967Y-11240293D02*
X7351015Y-11230769D01*
X7446253Y-11183150D02*
X7446253Y-11383150D01*
X7446253Y-11192674D02*
X7465301Y-11183150D01*
X7465301Y-11183150D02*
X7503396Y-11183150D01*
X7503396Y-11183150D02*
X7522443Y-11192674D01*
X7522443Y-11192674D02*
X7531967Y-11202198D01*
X7531967Y-11202198D02*
X7541491Y-11221246D01*
X7541491Y-11221246D02*
X7541491Y-11278388D01*
X7541491Y-11278388D02*
X7531967Y-11297436D01*
X7531967Y-11297436D02*
X7522443Y-11306960D01*
X7522443Y-11306960D02*
X7503396Y-11316484D01*
X7503396Y-11316484D02*
X7465301Y-11316484D01*
X7465301Y-11316484D02*
X7446253Y-11306960D01*
X7627205Y-11297436D02*
X7636729Y-11306960D01*
X7636729Y-11306960D02*
X7627205Y-11316484D01*
X7627205Y-11316484D02*
X7617682Y-11306960D01*
X7617682Y-11306960D02*
X7627205Y-11297436D01*
X7627205Y-11297436D02*
X7627205Y-11316484D01*
X7627205Y-11192674D02*
X7636729Y-11202198D01*
X7636729Y-11202198D02*
X7627205Y-11211722D01*
X7627205Y-11211722D02*
X7617682Y-11202198D01*
X7617682Y-11202198D02*
X7627205Y-11192674D01*
X7627205Y-11192674D02*
X7627205Y-11211722D01*
X5795000Y-11545000D02*
X5995000Y-11745000D01*
X5995000Y-11545000D02*
X5795000Y-11745000D01*
X6236729Y-11536484D02*
X6360539Y-11536484D01*
X6360539Y-11536484D02*
X6293872Y-11612674D01*
X6293872Y-11612674D02*
X6322443Y-11612674D01*
X6322443Y-11612674D02*
X6341491Y-11622198D01*
X6341491Y-11622198D02*
X6351015Y-11631722D01*
X6351015Y-11631722D02*
X6360539Y-11650769D01*
X6360539Y-11650769D02*
X6360539Y-11698388D01*
X6360539Y-11698388D02*
X6351015Y-11717436D01*
X6351015Y-11717436D02*
X6341491Y-11726960D01*
X6341491Y-11726960D02*
X6322443Y-11736484D01*
X6322443Y-11736484D02*
X6265301Y-11736484D01*
X6265301Y-11736484D02*
X6246253Y-11726960D01*
X6246253Y-11726960D02*
X6236729Y-11717436D01*
X6446253Y-11717436D02*
X6455777Y-11726960D01*
X6455777Y-11726960D02*
X6446253Y-11736484D01*
X6446253Y-11736484D02*
X6436729Y-11726960D01*
X6436729Y-11726960D02*
X6446253Y-11717436D01*
X6446253Y-11717436D02*
X6446253Y-11736484D01*
X6531967Y-11555531D02*
X6541491Y-11546008D01*
X6541491Y-11546008D02*
X6560539Y-11536484D01*
X6560539Y-11536484D02*
X6608158Y-11536484D01*
X6608158Y-11536484D02*
X6627205Y-11546008D01*
X6627205Y-11546008D02*
X6636729Y-11555531D01*
X6636729Y-11555531D02*
X6646253Y-11574579D01*
X6646253Y-11574579D02*
X6646253Y-11593627D01*
X6646253Y-11593627D02*
X6636729Y-11622198D01*
X6636729Y-11622198D02*
X6522443Y-11736484D01*
X6522443Y-11736484D02*
X6646253Y-11736484D01*
X6770062Y-11536484D02*
X6789110Y-11536484D01*
X6789110Y-11536484D02*
X6808158Y-11546008D01*
X6808158Y-11546008D02*
X6817682Y-11555531D01*
X6817682Y-11555531D02*
X6827205Y-11574579D01*
X6827205Y-11574579D02*
X6836729Y-11612674D01*
X6836729Y-11612674D02*
X6836729Y-11660293D01*
X6836729Y-11660293D02*
X6827205Y-11698388D01*
X6827205Y-11698388D02*
X6817682Y-11717436D01*
X6817682Y-11717436D02*
X6808158Y-11726960D01*
X6808158Y-11726960D02*
X6789110Y-11736484D01*
X6789110Y-11736484D02*
X6770062Y-11736484D01*
X6770062Y-11736484D02*
X6751015Y-11726960D01*
X6751015Y-11726960D02*
X6741491Y-11717436D01*
X6741491Y-11717436D02*
X6731967Y-11698388D01*
X6731967Y-11698388D02*
X6722443Y-11660293D01*
X6722443Y-11660293D02*
X6722443Y-11612674D01*
X6722443Y-11612674D02*
X6731967Y-11574579D01*
X6731967Y-11574579D02*
X6741491Y-11555531D01*
X6741491Y-11555531D02*
X6751015Y-11546008D01*
X6751015Y-11546008D02*
X6770062Y-11536484D01*
X6960539Y-11536484D02*
X6979586Y-11536484D01*
X6979586Y-11536484D02*
X6998634Y-11546008D01*
X6998634Y-11546008D02*
X7008158Y-11555531D01*
X7008158Y-11555531D02*
X7017682Y-11574579D01*
X7017682Y-11574579D02*
X7027205Y-11612674D01*
X7027205Y-11612674D02*
X7027205Y-11660293D01*
X7027205Y-11660293D02*
X7017682Y-11698388D01*
X7017682Y-11698388D02*
X7008158Y-11717436D01*
X7008158Y-11717436D02*
X6998634Y-11726960D01*
X6998634Y-11726960D02*
X6979586Y-11736484D01*
X6979586Y-11736484D02*
X6960539Y-11736484D01*
X6960539Y-11736484D02*
X6941491Y-11726960D01*
X6941491Y-11726960D02*
X6931967Y-11717436D01*
X6931967Y-11717436D02*
X6922443Y-11698388D01*
X6922443Y-11698388D02*
X6912920Y-11660293D01*
X6912920Y-11660293D02*
X6912920Y-11612674D01*
X6912920Y-11612674D02*
X6922443Y-11574579D01*
X6922443Y-11574579D02*
X6931967Y-11555531D01*
X6931967Y-11555531D02*
X6941491Y-11546008D01*
X6941491Y-11546008D02*
X6960539Y-11536484D01*
X7112920Y-11736484D02*
X7112920Y-11603150D01*
X7112920Y-11622198D02*
X7122443Y-11612674D01*
X7122443Y-11612674D02*
X7141491Y-11603150D01*
X7141491Y-11603150D02*
X7170063Y-11603150D01*
X7170063Y-11603150D02*
X7189110Y-11612674D01*
X7189110Y-11612674D02*
X7198634Y-11631722D01*
X7198634Y-11631722D02*
X7198634Y-11736484D01*
X7198634Y-11631722D02*
X7208158Y-11612674D01*
X7208158Y-11612674D02*
X7227205Y-11603150D01*
X7227205Y-11603150D02*
X7255777Y-11603150D01*
X7255777Y-11603150D02*
X7274824Y-11612674D01*
X7274824Y-11612674D02*
X7284348Y-11631722D01*
X7284348Y-11631722D02*
X7284348Y-11736484D01*
X7379586Y-11736484D02*
X7379586Y-11603150D01*
X7379586Y-11622198D02*
X7389110Y-11612674D01*
X7389110Y-11612674D02*
X7408158Y-11603150D01*
X7408158Y-11603150D02*
X7436729Y-11603150D01*
X7436729Y-11603150D02*
X7455777Y-11612674D01*
X7455777Y-11612674D02*
X7465301Y-11631722D01*
X7465301Y-11631722D02*
X7465301Y-11736484D01*
X7465301Y-11631722D02*
X7474824Y-11612674D01*
X7474824Y-11612674D02*
X7493872Y-11603150D01*
X7493872Y-11603150D02*
X7522443Y-11603150D01*
X7522443Y-11603150D02*
X7541491Y-11612674D01*
X7541491Y-11612674D02*
X7551015Y-11631722D01*
X7551015Y-11631722D02*
X7551015Y-11736484D01*
X7941491Y-11526960D02*
X7770063Y-11784103D01*
X8198634Y-11536484D02*
X8217682Y-11536484D01*
X8217682Y-11536484D02*
X8236729Y-11546008D01*
X8236729Y-11546008D02*
X8246253Y-11555531D01*
X8246253Y-11555531D02*
X8255777Y-11574579D01*
X8255777Y-11574579D02*
X8265301Y-11612674D01*
X8265301Y-11612674D02*
X8265301Y-11660293D01*
X8265301Y-11660293D02*
X8255777Y-11698388D01*
X8255777Y-11698388D02*
X8246253Y-11717436D01*
X8246253Y-11717436D02*
X8236729Y-11726960D01*
X8236729Y-11726960D02*
X8217682Y-11736484D01*
X8217682Y-11736484D02*
X8198634Y-11736484D01*
X8198634Y-11736484D02*
X8179586Y-11726960D01*
X8179586Y-11726960D02*
X8170063Y-11717436D01*
X8170063Y-11717436D02*
X8160539Y-11698388D01*
X8160539Y-11698388D02*
X8151015Y-11660293D01*
X8151015Y-11660293D02*
X8151015Y-11612674D01*
X8151015Y-11612674D02*
X8160539Y-11574579D01*
X8160539Y-11574579D02*
X8170063Y-11555531D01*
X8170063Y-11555531D02*
X8179586Y-11546008D01*
X8179586Y-11546008D02*
X8198634Y-11536484D01*
X8351015Y-11717436D02*
X8360539Y-11726960D01*
X8360539Y-11726960D02*
X8351015Y-11736484D01*
X8351015Y-11736484D02*
X8341491Y-11726960D01*
X8341491Y-11726960D02*
X8351015Y-11717436D01*
X8351015Y-11717436D02*
X8351015Y-11736484D01*
X8551015Y-11736484D02*
X8436729Y-11736484D01*
X8493872Y-11736484D02*
X8493872Y-11536484D01*
X8493872Y-11536484D02*
X8474825Y-11565055D01*
X8474825Y-11565055D02*
X8455777Y-11584103D01*
X8455777Y-11584103D02*
X8436729Y-11593627D01*
X8627206Y-11555531D02*
X8636729Y-11546008D01*
X8636729Y-11546008D02*
X8655777Y-11536484D01*
X8655777Y-11536484D02*
X8703396Y-11536484D01*
X8703396Y-11536484D02*
X8722444Y-11546008D01*
X8722444Y-11546008D02*
X8731968Y-11555531D01*
X8731968Y-11555531D02*
X8741491Y-11574579D01*
X8741491Y-11574579D02*
X8741491Y-11593627D01*
X8741491Y-11593627D02*
X8731968Y-11622198D01*
X8731968Y-11622198D02*
X8617682Y-11736484D01*
X8617682Y-11736484D02*
X8741491Y-11736484D01*
X8912920Y-11536484D02*
X8874825Y-11536484D01*
X8874825Y-11536484D02*
X8855777Y-11546008D01*
X8855777Y-11546008D02*
X8846253Y-11555531D01*
X8846253Y-11555531D02*
X8827206Y-11584103D01*
X8827206Y-11584103D02*
X8817682Y-11622198D01*
X8817682Y-11622198D02*
X8817682Y-11698388D01*
X8817682Y-11698388D02*
X8827206Y-11717436D01*
X8827206Y-11717436D02*
X8836729Y-11726960D01*
X8836729Y-11726960D02*
X8855777Y-11736484D01*
X8855777Y-11736484D02*
X8893872Y-11736484D01*
X8893872Y-11736484D02*
X8912920Y-11726960D01*
X8912920Y-11726960D02*
X8922444Y-11717436D01*
X8922444Y-11717436D02*
X8931968Y-11698388D01*
X8931968Y-11698388D02*
X8931968Y-11650769D01*
X8931968Y-11650769D02*
X8922444Y-11631722D01*
X8922444Y-11631722D02*
X8912920Y-11622198D01*
X8912920Y-11622198D02*
X8893872Y-11612674D01*
X8893872Y-11612674D02*
X8855777Y-11612674D01*
X8855777Y-11612674D02*
X8836729Y-11622198D01*
X8836729Y-11622198D02*
X8827206Y-11631722D01*
X8827206Y-11631722D02*
X8817682Y-11650769D01*
X9055777Y-11536484D02*
X9074825Y-11536484D01*
X9074825Y-11536484D02*
X9093872Y-11546008D01*
X9093872Y-11546008D02*
X9103396Y-11555531D01*
X9103396Y-11555531D02*
X9112920Y-11574579D01*
X9112920Y-11574579D02*
X9122444Y-11612674D01*
X9122444Y-11612674D02*
X9122444Y-11660293D01*
X9122444Y-11660293D02*
X9112920Y-11698388D01*
X9112920Y-11698388D02*
X9103396Y-11717436D01*
X9103396Y-11717436D02*
X9093872Y-11726960D01*
X9093872Y-11726960D02*
X9074825Y-11736484D01*
X9074825Y-11736484D02*
X9055777Y-11736484D01*
X9055777Y-11736484D02*
X9036729Y-11726960D01*
X9036729Y-11726960D02*
X9027206Y-11717436D01*
X9027206Y-11717436D02*
X9017682Y-11698388D01*
X9017682Y-11698388D02*
X9008158Y-11660293D01*
X9008158Y-11660293D02*
X9008158Y-11612674D01*
X9008158Y-11612674D02*
X9017682Y-11574579D01*
X9017682Y-11574579D02*
X9027206Y-11555531D01*
X9027206Y-11555531D02*
X9036729Y-11546008D01*
X9036729Y-11546008D02*
X9055777Y-11536484D01*
X9198634Y-11536484D02*
X9198634Y-11574579D01*
X9274825Y-11536484D02*
X9274825Y-11574579D01*
X9570063Y-11812674D02*
X9560539Y-11803150D01*
X9560539Y-11803150D02*
X9541491Y-11774579D01*
X9541491Y-11774579D02*
X9531968Y-11755531D01*
X9531968Y-11755531D02*
X9522444Y-11726960D01*
X9522444Y-11726960D02*
X9512920Y-11679341D01*
X9512920Y-11679341D02*
X9512920Y-11641246D01*
X9512920Y-11641246D02*
X9522444Y-11593627D01*
X9522444Y-11593627D02*
X9531968Y-11565055D01*
X9531968Y-11565055D02*
X9541491Y-11546008D01*
X9541491Y-11546008D02*
X9560539Y-11517436D01*
X9560539Y-11517436D02*
X9570063Y-11507912D01*
X9731968Y-11603150D02*
X9731968Y-11736484D01*
X9684349Y-11526960D02*
X9636730Y-11669817D01*
X9636730Y-11669817D02*
X9760539Y-11669817D01*
X9989111Y-11736484D02*
X9989111Y-11536484D01*
X10074825Y-11736484D02*
X10074825Y-11631722D01*
X10074825Y-11631722D02*
X10065301Y-11612674D01*
X10065301Y-11612674D02*
X10046253Y-11603150D01*
X10046253Y-11603150D02*
X10017682Y-11603150D01*
X10017682Y-11603150D02*
X9998634Y-11612674D01*
X9998634Y-11612674D02*
X9989111Y-11622198D01*
X10198634Y-11736484D02*
X10179587Y-11726960D01*
X10179587Y-11726960D02*
X10170063Y-11717436D01*
X10170063Y-11717436D02*
X10160539Y-11698388D01*
X10160539Y-11698388D02*
X10160539Y-11641246D01*
X10160539Y-11641246D02*
X10170063Y-11622198D01*
X10170063Y-11622198D02*
X10179587Y-11612674D01*
X10179587Y-11612674D02*
X10198634Y-11603150D01*
X10198634Y-11603150D02*
X10227206Y-11603150D01*
X10227206Y-11603150D02*
X10246253Y-11612674D01*
X10246253Y-11612674D02*
X10255777Y-11622198D01*
X10255777Y-11622198D02*
X10265301Y-11641246D01*
X10265301Y-11641246D02*
X10265301Y-11698388D01*
X10265301Y-11698388D02*
X10255777Y-11717436D01*
X10255777Y-11717436D02*
X10246253Y-11726960D01*
X10246253Y-11726960D02*
X10227206Y-11736484D01*
X10227206Y-11736484D02*
X10198634Y-11736484D01*
X10379587Y-11736484D02*
X10360539Y-11726960D01*
X10360539Y-11726960D02*
X10351015Y-11707912D01*
X10351015Y-11707912D02*
X10351015Y-11536484D01*
X10531968Y-11726960D02*
X10512920Y-11736484D01*
X10512920Y-11736484D02*
X10474825Y-11736484D01*
X10474825Y-11736484D02*
X10455777Y-11726960D01*
X10455777Y-11726960D02*
X10446253Y-11707912D01*
X10446253Y-11707912D02*
X10446253Y-11631722D01*
X10446253Y-11631722D02*
X10455777Y-11612674D01*
X10455777Y-11612674D02*
X10474825Y-11603150D01*
X10474825Y-11603150D02*
X10512920Y-11603150D01*
X10512920Y-11603150D02*
X10531968Y-11612674D01*
X10531968Y-11612674D02*
X10541492Y-11631722D01*
X10541492Y-11631722D02*
X10541492Y-11650769D01*
X10541492Y-11650769D02*
X10446253Y-11669817D01*
X10617682Y-11726960D02*
X10636730Y-11736484D01*
X10636730Y-11736484D02*
X10674825Y-11736484D01*
X10674825Y-11736484D02*
X10693873Y-11726960D01*
X10693873Y-11726960D02*
X10703396Y-11707912D01*
X10703396Y-11707912D02*
X10703396Y-11698388D01*
X10703396Y-11698388D02*
X10693873Y-11679341D01*
X10693873Y-11679341D02*
X10674825Y-11669817D01*
X10674825Y-11669817D02*
X10646253Y-11669817D01*
X10646253Y-11669817D02*
X10627206Y-11660293D01*
X10627206Y-11660293D02*
X10617682Y-11641246D01*
X10617682Y-11641246D02*
X10617682Y-11631722D01*
X10617682Y-11631722D02*
X10627206Y-11612674D01*
X10627206Y-11612674D02*
X10646253Y-11603150D01*
X10646253Y-11603150D02*
X10674825Y-11603150D01*
X10674825Y-11603150D02*
X10693873Y-11612674D01*
X10770063Y-11812674D02*
X10779587Y-11803150D01*
X10779587Y-11803150D02*
X10798634Y-11774579D01*
X10798634Y-11774579D02*
X10808158Y-11755531D01*
X10808158Y-11755531D02*
X10817682Y-11726960D01*
X10817682Y-11726960D02*
X10827206Y-11679341D01*
X10827206Y-11679341D02*
X10827206Y-11641246D01*
X10827206Y-11641246D02*
X10817682Y-11593627D01*
X10817682Y-11593627D02*
X10808158Y-11565055D01*
X10808158Y-11565055D02*
X10798634Y-11546008D01*
X10798634Y-11546008D02*
X10779587Y-11517436D01*
X10779587Y-11517436D02*
X10770063Y-11507912D01*
X11131968Y-11812674D02*
X11122444Y-11803150D01*
X11122444Y-11803150D02*
X11103396Y-11774579D01*
X11103396Y-11774579D02*
X11093873Y-11755531D01*
X11093873Y-11755531D02*
X11084349Y-11726960D01*
X11084349Y-11726960D02*
X11074825Y-11679341D01*
X11074825Y-11679341D02*
X11074825Y-11641246D01*
X11074825Y-11641246D02*
X11084349Y-11593627D01*
X11084349Y-11593627D02*
X11093873Y-11565055D01*
X11093873Y-11565055D02*
X11103396Y-11546008D01*
X11103396Y-11546008D02*
X11122444Y-11517436D01*
X11122444Y-11517436D02*
X11131968Y-11507912D01*
X11208158Y-11603150D02*
X11208158Y-11736484D01*
X11208158Y-11622198D02*
X11217682Y-11612674D01*
X11217682Y-11612674D02*
X11236730Y-11603150D01*
X11236730Y-11603150D02*
X11265301Y-11603150D01*
X11265301Y-11603150D02*
X11284349Y-11612674D01*
X11284349Y-11612674D02*
X11293872Y-11631722D01*
X11293872Y-11631722D02*
X11293872Y-11736484D01*
X11417682Y-11736484D02*
X11398634Y-11726960D01*
X11398634Y-11726960D02*
X11389111Y-11717436D01*
X11389111Y-11717436D02*
X11379587Y-11698388D01*
X11379587Y-11698388D02*
X11379587Y-11641246D01*
X11379587Y-11641246D02*
X11389111Y-11622198D01*
X11389111Y-11622198D02*
X11398634Y-11612674D01*
X11398634Y-11612674D02*
X11417682Y-11603150D01*
X11417682Y-11603150D02*
X11446253Y-11603150D01*
X11446253Y-11603150D02*
X11465301Y-11612674D01*
X11465301Y-11612674D02*
X11474825Y-11622198D01*
X11474825Y-11622198D02*
X11484349Y-11641246D01*
X11484349Y-11641246D02*
X11484349Y-11698388D01*
X11484349Y-11698388D02*
X11474825Y-11717436D01*
X11474825Y-11717436D02*
X11465301Y-11726960D01*
X11465301Y-11726960D02*
X11446253Y-11736484D01*
X11446253Y-11736484D02*
X11417682Y-11736484D01*
X11541492Y-11603150D02*
X11617682Y-11603150D01*
X11570063Y-11536484D02*
X11570063Y-11707912D01*
X11570063Y-11707912D02*
X11579587Y-11726960D01*
X11579587Y-11726960D02*
X11598634Y-11736484D01*
X11598634Y-11736484D02*
X11617682Y-11736484D01*
X11836730Y-11603150D02*
X11836730Y-11803150D01*
X11836730Y-11612674D02*
X11855777Y-11603150D01*
X11855777Y-11603150D02*
X11893873Y-11603150D01*
X11893873Y-11603150D02*
X11912920Y-11612674D01*
X11912920Y-11612674D02*
X11922444Y-11622198D01*
X11922444Y-11622198D02*
X11931968Y-11641246D01*
X11931968Y-11641246D02*
X11931968Y-11698388D01*
X11931968Y-11698388D02*
X11922444Y-11717436D01*
X11922444Y-11717436D02*
X11912920Y-11726960D01*
X11912920Y-11726960D02*
X11893873Y-11736484D01*
X11893873Y-11736484D02*
X11855777Y-11736484D01*
X11855777Y-11736484D02*
X11836730Y-11726960D01*
X12046253Y-11736484D02*
X12027206Y-11726960D01*
X12027206Y-11726960D02*
X12017682Y-11707912D01*
X12017682Y-11707912D02*
X12017682Y-11536484D01*
X12208158Y-11736484D02*
X12208158Y-11631722D01*
X12208158Y-11631722D02*
X12198634Y-11612674D01*
X12198634Y-11612674D02*
X12179587Y-11603150D01*
X12179587Y-11603150D02*
X12141492Y-11603150D01*
X12141492Y-11603150D02*
X12122444Y-11612674D01*
X12208158Y-11726960D02*
X12189111Y-11736484D01*
X12189111Y-11736484D02*
X12141492Y-11736484D01*
X12141492Y-11736484D02*
X12122444Y-11726960D01*
X12122444Y-11726960D02*
X12112920Y-11707912D01*
X12112920Y-11707912D02*
X12112920Y-11688865D01*
X12112920Y-11688865D02*
X12122444Y-11669817D01*
X12122444Y-11669817D02*
X12141492Y-11660293D01*
X12141492Y-11660293D02*
X12189111Y-11660293D01*
X12189111Y-11660293D02*
X12208158Y-11650769D01*
X12274825Y-11603150D02*
X12351015Y-11603150D01*
X12303396Y-11536484D02*
X12303396Y-11707912D01*
X12303396Y-11707912D02*
X12312920Y-11726960D01*
X12312920Y-11726960D02*
X12331968Y-11736484D01*
X12331968Y-11736484D02*
X12351015Y-11736484D01*
X12493873Y-11726960D02*
X12474825Y-11736484D01*
X12474825Y-11736484D02*
X12436730Y-11736484D01*
X12436730Y-11736484D02*
X12417682Y-11726960D01*
X12417682Y-11726960D02*
X12408158Y-11707912D01*
X12408158Y-11707912D02*
X12408158Y-11631722D01*
X12408158Y-11631722D02*
X12417682Y-11612674D01*
X12417682Y-11612674D02*
X12436730Y-11603150D01*
X12436730Y-11603150D02*
X12474825Y-11603150D01*
X12474825Y-11603150D02*
X12493873Y-11612674D01*
X12493873Y-11612674D02*
X12503396Y-11631722D01*
X12503396Y-11631722D02*
X12503396Y-11650769D01*
X12503396Y-11650769D02*
X12408158Y-11669817D01*
X12674825Y-11736484D02*
X12674825Y-11536484D01*
X12674825Y-11726960D02*
X12655777Y-11736484D01*
X12655777Y-11736484D02*
X12617682Y-11736484D01*
X12617682Y-11736484D02*
X12598634Y-11726960D01*
X12598634Y-11726960D02*
X12589111Y-11717436D01*
X12589111Y-11717436D02*
X12579587Y-11698388D01*
X12579587Y-11698388D02*
X12579587Y-11641246D01*
X12579587Y-11641246D02*
X12589111Y-11622198D01*
X12589111Y-11622198D02*
X12598634Y-11612674D01*
X12598634Y-11612674D02*
X12617682Y-11603150D01*
X12617682Y-11603150D02*
X12655777Y-11603150D01*
X12655777Y-11603150D02*
X12674825Y-11612674D01*
X12751015Y-11812674D02*
X12760539Y-11803150D01*
X12760539Y-11803150D02*
X12779587Y-11774579D01*
X12779587Y-11774579D02*
X12789111Y-11755531D01*
X12789111Y-11755531D02*
X12798634Y-11726960D01*
X12798634Y-11726960D02*
X12808158Y-11679341D01*
X12808158Y-11679341D02*
X12808158Y-11641246D01*
X12808158Y-11641246D02*
X12798634Y-11593627D01*
X12798634Y-11593627D02*
X12789111Y-11565055D01*
X12789111Y-11565055D02*
X12779587Y-11546008D01*
X12779587Y-11546008D02*
X12760539Y-11517436D01*
X12760539Y-11517436D02*
X12751015Y-11507912D01*
M02*
