G04 #@! TF.GenerationSoftware,KiCad,Pcbnew,7.0.5*
G04 #@! TF.CreationDate,2024-08-02T13:19:31+02:00*
G04 #@! TF.ProjectId,NullModemAdapter,4e756c6c-4d6f-4646-956d-416461707465,rev?*
G04 #@! TF.SameCoordinates,Original*
G04 #@! TF.FileFunction,Copper,L2,Bot*
G04 #@! TF.FilePolarity,Positive*
%FSLAX46Y46*%
G04 Gerber Fmt 4.6, Leading zero omitted, Abs format (unit mm)*
G04 Created by KiCad (PCBNEW 7.0.5) date 2024-08-02 13:19:31*
%MOMM*%
%LPD*%
G01*
G04 APERTURE LIST*
G04 #@! TA.AperFunction,ComponentPad*
%ADD10C,1.600000*%
G04 #@! TD*
G04 #@! TA.AperFunction,ComponentPad*
%ADD11O,1.600000X1.600000*%
G04 #@! TD*
G04 #@! TA.AperFunction,ComponentPad*
%ADD12C,4.000000*%
G04 #@! TD*
G04 #@! TA.AperFunction,ComponentPad*
%ADD13R,1.600000X1.600000*%
G04 #@! TD*
G04 #@! TA.AperFunction,ComponentPad*
%ADD14R,1.800000X1.800000*%
G04 #@! TD*
G04 #@! TA.AperFunction,ComponentPad*
%ADD15C,1.800000*%
G04 #@! TD*
G04 #@! TA.AperFunction,Conductor*
%ADD16C,0.500000*%
G04 #@! TD*
G04 #@! TA.AperFunction,Conductor*
%ADD17C,0.250000*%
G04 #@! TD*
G04 APERTURE END LIST*
D10*
X68000000Y-95660000D03*
D11*
X68000000Y-85500000D03*
D12*
X99535000Y-68570000D03*
X74535000Y-68570000D03*
D13*
X81495000Y-69990000D03*
D10*
X84265000Y-69990000D03*
X87035000Y-69990000D03*
X89805000Y-69990000D03*
X92575000Y-69990000D03*
X82880000Y-67150000D03*
X85650000Y-67150000D03*
X88420000Y-67150000D03*
X91190000Y-67150000D03*
X107000000Y-75500000D03*
D11*
X107000000Y-85660000D03*
D14*
X79960000Y-85500000D03*
D15*
X82500000Y-85500000D03*
D12*
X74510000Y-101420000D03*
X99510000Y-101420000D03*
D13*
X92550000Y-100000000D03*
D10*
X89780000Y-100000000D03*
X87010000Y-100000000D03*
X84240000Y-100000000D03*
X81470000Y-100000000D03*
X91165000Y-102840000D03*
X88395000Y-102840000D03*
X85625000Y-102840000D03*
X82855000Y-102840000D03*
D14*
X94000000Y-85500000D03*
D15*
X91460000Y-85500000D03*
D16*
X85625000Y-97925000D02*
X85620000Y-72030000D01*
D17*
X85620000Y-72030000D02*
X85625000Y-67175000D01*
X88400000Y-72100000D02*
X88395000Y-67175000D01*
D16*
X88400000Y-98100000D02*
X88400000Y-72100000D01*
D17*
X88395000Y-98105000D02*
X88400000Y-98100000D01*
X88395000Y-102840000D02*
X88395000Y-98105000D01*
X85625000Y-97925000D02*
X85625000Y-102840000D01*
D16*
X98085000Y-75500000D02*
X107000000Y-75500000D01*
X78500000Y-102500000D02*
X78500000Y-100000000D01*
X78500000Y-100000000D02*
X78500000Y-97500000D01*
X110000000Y-98500000D02*
X101500000Y-107000000D01*
X81470000Y-100000000D02*
X78500000Y-100000000D01*
X107000000Y-75500000D02*
X110000000Y-78500000D01*
X83000000Y-107000000D02*
X78500000Y-102500000D01*
X76660000Y-95660000D02*
X68000000Y-95660000D01*
X101500000Y-107000000D02*
X83000000Y-107000000D01*
X78500000Y-97500000D02*
X76660000Y-95660000D01*
X110000000Y-78500000D02*
X110000000Y-98500000D01*
X92575000Y-69990000D02*
X98085000Y-75500000D01*
X82500000Y-85500000D02*
X85625000Y-85500000D01*
X91460000Y-85500000D02*
X88395000Y-85500000D01*
X79960000Y-85500000D02*
X68000000Y-85500000D01*
X94000000Y-85500000D02*
X106840000Y-85500000D01*
M02*
